<?xml version="1.0" encoding="UTF-8"?>
<svg width="560px" height="162px" viewBox="0 0 560 162" version="1.1" xmlns="http://www.w3.org/2000/svg" xmlns:xlink="http://www.w3.org/1999/xlink">
    <!-- Generator: Sketch 52.6 (67491) - http://www.bohemiancoding.com/sketch -->
    <title>Untitled 2</title>
    <desc>Created with Sketch.</desc>
    <g id="Page-1" stroke="none" stroke-width="1" fill="none" fill-rule="evenodd">
        <g id="microsoft">
            <polygon id="Path" points="0 0.15 559.676 0.15 559.676 161.253 0 161.253"></polygon>
            <polygon id="Path" fill="#F65314" points="26.088 26.515 77.643 26.515 77.639 78.07 26.088 78.07"></polygon>
            <path d="M82.907,26.515 L134.462,26.515 C134.462,43.7 134.465,60.885 134.459,78.07 C117.277,78.067 100.092,78.07 82.91,78.07 C82.904,60.885 82.907,43.7 82.907,26.515 Z" id="Path" fill="#7FBB41"></path>
            <path d="M490.997,46.159 C495.75,43.066 501.891,42.777 507.247,44.251 C507.294,47.435 507.253,50.621 507.268,53.806 C504.723,52.686 501.728,51.955 499.051,53.054 C496.926,53.897 495.662,56.077 495.332,58.256 C494.933,61.021 495.192,63.823 495.124,66.604 C500.562,66.616 505.999,66.607 511.436,66.61 C511.477,63.08 511.393,59.547 511.483,56.017 C515.18,54.966 518.836,53.785 522.515,52.677 C522.546,57.327 522.472,61.981 522.556,66.635 C526.231,66.582 529.91,66.623 533.588,66.61 L533.588,75.665 C529.897,75.512 526.203,75.623 522.513,75.611 C522.528,80.817 522.515,86.022 522.518,91.229 C522.577,94.112 522.364,97.01 522.701,99.884 C522.905,101.578 523.522,103.455 525.109,104.331 C527.77,105.82 531.145,105.17 533.588,103.535 L533.588,112.678 C530.401,114.062 526.841,114.484 523.395,114.239 C520.124,113.997 516.738,112.809 514.604,110.207 C512.139,107.269 511.505,103.29 511.455,99.568 C511.427,91.58 511.458,83.591 511.443,75.599 C506.002,75.595 500.562,75.593 495.124,75.602 C495.118,88.139 495.121,100.677 495.121,113.215 L483.971,113.215 C483.971,100.679 483.955,88.149 483.977,75.615 C481.391,75.565 478.803,75.627 476.218,75.574 C476.227,72.599 476.239,69.62 476.211,66.641 C478.785,66.582 481.361,66.607 483.941,66.626 C484.129,62.668 483.526,58.597 484.709,54.742 C485.708,51.262 487.932,48.122 490.997,46.159 Z M252.271,46.809 C254.519,46.468 256.952,47.236 258.442,48.995 C260.189,50.921 260.511,53.986 259.216,56.238 C257.785,58.776 254.584,59.956 251.794,59.347 C248.899,58.827 246.487,56.135 246.616,53.135 C246.533,49.977 249.174,47.162 252.271,46.808 L252.271,46.809 Z M166.819,48.19 L183.035,48.19 C188.082,61.007 193.166,73.809 198.22,86.625 C199.511,89.831 200.719,93.072 202.072,96.252 C208.565,80.238 215.151,64.264 221.594,48.227 C226.794,48.143 231.995,48.208 237.197,48.196 C237.185,69.868 237.191,91.539 237.195,113.211 C233.442,113.202 229.692,113.243 225.942,113.189 C225.982,97.197 225.939,81.204 225.961,65.208 C225.967,64.489 225.942,63.77 225.892,63.053 C225.672,63.387 225.478,63.734 225.308,64.094 C218.863,80.463 212.296,96.787 205.89,113.173 C203.221,113.27 200.549,113.18 197.876,113.222 C191.229,96.853 184.664,80.445 178.05,64.062 C177.876,63.721 177.691,63.39 177.489,63.072 C177.353,70.078 177.468,77.091 177.431,84.099 C177.433,93.803 177.425,103.507 177.433,113.211 C173.895,113.22 170.356,113.211 166.819,113.215 C166.816,91.539 166.813,69.864 166.819,48.19 Z M282.957,66.567 C288.337,65.034 294.141,65.096 299.519,66.616 C300.628,66.926 301.701,67.356 302.7,67.942 C302.637,71.493 302.7,75.048 302.665,78.603 C299.069,75.856 294.509,74.116 289.939,74.692 C286.309,75.02 282.848,76.903 280.678,79.835 C277.887,83.47 277.243,88.297 277.724,92.744 C278.083,96.224 279.522,99.702 282.229,102.009 C285.04,104.507 288.981,105.392 292.66,105.114 C296.296,104.696 299.727,103.156 302.665,101.007 C302.696,104.373 302.649,107.739 302.69,111.105 C298.131,113.818 292.667,114.517 287.449,114.262 C282.111,113.979 276.788,111.957 272.924,108.204 C268.725,104.157 266.446,98.385 266.176,92.605 C265.904,86.594 267.127,80.324 270.586,75.305 C273.484,71.022 278.018,67.991 282.957,66.567 Z M404.753,65.858 C409.909,64.95 415.306,65.616 420.185,67.465 C420.192,70.884 420.185,74.298 420.188,77.714 C416.779,75.37 412.614,74.109 408.477,74.255 C406.394,74.336 404.103,75.219 403.152,77.2 C402.396,79.16 402.92,81.73 404.769,82.904 C407.929,85.019 411.701,85.917 414.977,87.811 C417.556,89.261 420.058,91.155 421.366,93.887 C423.821,99.002 422.781,105.762 418.463,109.577 C414.343,113.428 408.407,114.493 402.948,114.289 C399.071,114.038 395.176,113.273 391.612,111.687 C391.628,108.093 391.59,104.501 391.63,100.909 C394.628,103.086 398.086,104.643 401.746,105.275 C404.295,105.689 407.067,105.709 409.441,104.569 C411.714,103.439 412.122,100.209 410.773,98.233 C409.509,96.71 407.654,95.872 405.905,95.048 C402.62,93.571 399.167,92.335 396.282,90.122 C394.253,88.539 392.717,86.31 392.117,83.795 C391.225,80.089 391.503,75.912 393.658,72.673 C396.12,68.898 400.396,66.635 404.753,65.858 Z M327.631,67.326 C330.708,65.477 334.619,65.322 337.979,66.453 C337.964,70.172 337.979,73.889 337.97,77.608 C335.771,76.185 333.028,75.574 330.434,75.838 C327.268,76.197 324.76,78.627 323.461,81.415 C322.048,84.365 321.782,87.702 321.871,90.929 C321.871,98.357 321.875,105.786 321.871,113.215 L310.879,113.215 C310.87,97.689 310.892,82.161 310.87,66.635 C314.539,66.588 318.209,66.607 321.878,66.625 C321.863,69.292 321.878,71.957 321.869,74.627 C323.061,71.726 324.835,68.908 327.631,67.325 L327.631,67.326 Z M247.629,66.625 C251.326,66.61 255.027,66.574 258.723,66.644 C258.68,82.168 258.721,97.692 258.705,113.215 L247.635,113.215 C247.626,97.686 247.639,82.157 247.629,66.626 L247.629,66.625 Z M358.499,65.765 C363.85,65.084 369.494,65.388 374.461,67.648 C378.771,69.592 382.264,73.187 384.199,77.492 C386.263,82.072 386.766,87.22 386.416,92.19 C386.072,97.041 384.549,101.903 381.514,105.758 C378.409,109.852 373.728,112.626 368.714,113.657 C364.428,114.549 359.945,114.545 355.659,113.645 C350.532,112.548 345.785,109.573 342.778,105.244 C339.249,100.228 338.246,93.85 338.694,87.839 C338.997,82.739 340.583,77.599 343.841,73.599 C347.408,69.118 352.88,66.474 358.499,65.765 Z M361.824,74.615 C359.159,74.763 356.465,75.665 354.489,77.509 C351.764,79.978 350.519,83.656 350.182,87.232 C349.81,91.165 350.079,95.311 351.876,98.896 C353.272,101.68 355.839,103.867 358.864,104.662 C361.837,105.433 365.072,105.368 367.952,104.262 C370.413,103.303 372.364,101.277 373.43,98.881 C375.039,95.326 375.198,91.329 375,87.493 C374.724,83.986 373.728,80.312 371.15,77.779 C368.742,75.342 365.175,74.395 361.824,74.615 Z M447.369,65.749 C452.933,65.06 458.841,65.433 463.919,67.998 C468.348,70.212 471.781,74.213 473.495,78.838 C474.837,82.377 475.308,86.198 475.229,89.966 C475.239,95.595 473.719,101.373 470.186,105.838 C466.879,110.161 461.82,112.97 456.478,113.852 C451.255,114.697 445.736,114.478 440.773,112.524 C435.745,110.546 431.565,106.507 429.446,101.534 C427.239,96.466 427.006,90.762 427.694,85.347 C428.415,79.93 430.868,74.636 435.048,71.035 C438.473,68.029 442.882,66.326 447.369,65.749 Z M450.379,74.624 C447.294,74.797 444.235,76.126 442.241,78.528 C440.055,81.102 439.116,84.498 438.862,87.808 C438.6,91.226 438.862,94.766 440.184,97.961 C441.284,100.643 443.372,102.974 446.064,104.114 C448.561,105.189 451.373,105.38 454.041,104.981 C456.528,104.615 458.937,103.427 460.557,101.476 C462.163,99.535 463.011,97.088 463.438,94.636 C463.978,91.344 463.984,87.954 463.346,84.678 C462.78,81.885 461.544,79.111 459.311,77.259 C456.891,75.132 453.528,74.405 450.379,74.624 Z" id="Shape" fill="#787878"></path>
            <path d="M26.088,83.331 C43.273,83.337 60.458,83.329 77.643,83.337 C77.646,100.522 77.643,117.704 77.643,134.889 L26.088,134.889 L26.088,83.331 Z" id="Path" fill="#00A1F1"></path>
            <path d="M82.91,83.337 C100.092,83.331 117.277,83.334 134.462,83.334 L134.462,134.889 L82.907,134.889 C82.91,117.704 82.904,100.519 82.91,83.337 Z" id="Path" fill="#FFBB00"></path>
        </g>
    </g>
</svg>