
<svg height="128" viewBox="0 0 42 31.000001" width="128" xmlns="http://www.w3.org/2000/svg"><path d="m47.855469 182.44531c-15.635029 0-28.302735 12.667-28.302735 28.30078 0 9.91915 6.281238 17.06999 12.84375 23.6875l25.660157 24.25977c1.344502 1.27113 3.55664.31714 3.55664-1.5332v-18.90039c0-5.46839 4.427771-9.90324 9.894531-9.91211 5.466261.009 9.896485 4.44372 9.896485 9.91211v18.90039c0 1.85037 2.212138 2.80433 3.556641 1.5332l25.658202-24.25977c6.56276-6.61751 12.8457-13.76873 12.8457-23.6875 0-15.63312-12.6654-28.29972-28.300778-28.30078h-.002c-9.810724.0007-18.576423 5.19793-23.652343 12.78907-5.076385-7.59127-13.841779-12.78907-23.654297-12.78907zm-6.765625 8.63672c.630001.021 1.236702.34592 1.595703.91992.576001.915.298861 2.12713-.619141 2.70313-4.395008 2.755-7.835937 9.21221-7.835937 14.69922v.0957c0 6.75901 3.841001 13.58977 11.416015 20.30078.813002.72.886924 1.95953.169922 2.76953-.388.438-.928749.65821-1.46875.65821-.463001 0-.92678-.16024-1.300781-.49024-8.450016-7.49101-12.736328-15.30827-12.736328-23.23828v-.0957c0-6.81402 4.159865-14.56343 9.671875-18.02344.344001-.215.730421-.31183 1.107422-.29883zm60.837886 0c.37801-.013.76343.0838 1.10743.29883 5.51301 3.46001 9.67187 11.20942 9.67187 18.02344v.0957c0 7.93001-4.28531 15.74727-12.736327 23.23828-.373001.33-.83778.49024-1.300781.49024-.539001 0-1.080749-.22021-1.46875-.65821-.719001-.81-.644033-2.04953.167969-2.76953 7.575009-6.71101 11.416019-13.54177 11.416019-20.30078v-.0957c0-5.48701-3.44193-11.94617-7.83594-14.70118-.918-.576-1.19319-1.78617-.61719-2.70117.359-.574.9667-.89892 1.5957-.91992zm-46.548824 5.01367c.762002-.064 1.52139.32302 1.900391 1.04102.504001.959.137736 2.14344-.822266 2.64844-3.929007 2.067-6.374765 6.10119-6.384765 10.5332.011 4.82201 3.06646 9.76364 7.605468 12.30664.946002.527 1.281908 1.72297.753907 2.66797-.359001.641-1.024937 1.00391-1.710938 1.00391-.327 0-.655984-.08-.958984-.25-5.729011-3.20801-9.586328-9.51026-9.611328-15.69727v-.0586c.023-5.88402 3.266459-11.23456 8.480468-13.97657.240001-.126.494047-.19675.748047-.21875zm32.259766 0c.254.022.509046.0927.748047.21875 5.214009 2.74201 8.456468 8.09255 8.480469 13.97657v.0586c-.025 6.18701-3.882318 12.48926-9.611329 15.69727-.303.17-.631983.25-.958984.25-.686001 0-1.35289-.36291-1.712891-1.00391-.528001-.945-.190142-2.14097.75586-2.66797 4.540008-2.543 7.591515-7.48463 7.603515-12.30664-.01-4.43201-2.452805-8.4662-6.382812-10.5332-.959002-.505-1.32922-1.68944-.824219-2.64844.378001-.718 1.141342-1.10502 1.902344-1.04102zm-16.13086 7.16602c4.699009.003 8.507813 3.81271 8.507813 8.51172s-3.808804 8.50872-8.507813 8.51172c-4.698008-.003-8.505859-3.81271-8.505859-8.51172s3.807851-8.50872 8.505859-8.51172z" fill="#c6002b" stroke-width="1.250002" transform="matrix(.37700962253 0 0 .37700962253 -6.34621452377 -67.50949016701)"/></svg>