<svg width="22px" height="24px" viewBox="0 0 22 24" version="1.1" xmlns="http://www.w3.org/2000/svg" xmlns:xlink="http://www.w3.org/1999/xlink">
    <!-- Generator: Sketch 47.1 (45422) - http://www.bohemiancoding.com/sketch -->
    <desc>Created with Sketch.</desc>
    <defs></defs>
    <g id="Page-1" stroke="none" stroke-width="1" fill="none" fill-rule="evenodd">
        <g id="apple_podcasts" fill-rule="nonzero" fill="#000000">
            <path d="M10.93,24 C10.93,24 13.563,24 13.563,16.206 C13.563,14.755 12.383,13.573 10.93,13.573 C9.477,13.573 8.296,14.755 8.296,16.206 C8.296,24 10.93,24 10.93,24 Z M14.16,21.344 C14.275,20.897 14.365,20.448 14.435,19.993 L14.488,19.633 C14.603,19.583 14.718,19.535 14.834,19.483 C16.662,18.655 18.201,17.24 19.182,15.49 C19.629,14.687 19.959,13.82 20.155,12.918 C20.382,11.91 20.44,10.859 20.321,9.83 C20.216,8.867 19.96,7.926 19.551,7.043 C19.086,6.004 18.44,5.057 17.627,4.259 C16.799,3.432 15.82,2.754 14.752,2.287 C13.654,1.791 12.449,1.535 11.232,1.505 C10.012,1.475 8.794,1.671 7.65,2.108 C6.552,2.527 5.544,3.145 4.671,3.942 C3.844,4.694 3.137,5.612 2.625,6.62 C2.188,7.478 1.889,8.396 1.723,9.343 C1.557,10.322 1.557,11.329 1.707,12.323 C1.842,13.195 2.098,14.053 2.475,14.866 C3.363,16.747 4.868,18.31 6.733,19.26 C6.959,19.364 7.184,19.47 7.425,19.574 C7.44,19.695 7.471,19.83 7.485,19.966 C7.56,20.404 7.651,20.855 7.756,21.291 C7.35,21.155 6.943,21.004 6.552,20.823 C4.4,19.847 2.58,18.161 1.451,16.069 C0.939,15.122 0.578,14.114 0.353,13.059 C0.096,11.901 0.051,10.682 0.203,9.493 C0.353,8.381 0.669,7.282 1.136,6.273 C1.692,5.085 2.475,3.987 3.407,3.069 C4.323,2.153 5.467,1.385 6.717,0.858 C8.02,0.311 9.42,0.018 10.828,0.001 C12.24,-0.014 13.652,0.241 14.967,0.759 C16.233,1.257 17.401,1.997 18.397,2.925 C19.362,3.82 20.157,4.887 20.743,6.064 C21.239,7.057 21.585,8.14 21.751,9.239 C21.931,10.383 21.931,11.556 21.735,12.685 C21.569,13.738 21.223,14.776 20.756,15.738 C19.703,17.86 17.957,19.606 15.836,20.66 C15.309,20.916 14.752,21.141 14.181,21.321 L14.16,21.344 Z M14.68,17.049 L14.69,16.579 C14.69,16.263 14.69,15.947 14.644,15.636 C14.629,15.515 14.599,15.41 14.569,15.29 C15.126,14.839 15.592,14.267 15.938,13.62 C16.194,13.139 16.389,12.612 16.495,12.069 C16.616,11.467 16.645,10.836 16.556,10.204 C16.482,9.647 16.329,9.106 16.105,8.594 C15.82,7.978 15.428,7.406 14.947,6.924 C14.45,6.443 13.893,6.052 13.261,5.765 C12.569,5.465 11.816,5.285 11.064,5.269 C10.312,5.254 9.544,5.39 8.837,5.661 C8.205,5.917 7.618,6.278 7.107,6.744 C6.594,7.21 6.173,7.752 5.872,8.368 C5.615,8.864 5.436,9.392 5.33,9.948 C5.225,10.52 5.211,11.107 5.285,11.678 C5.36,12.235 5.511,12.777 5.736,13.287 C6.082,14.055 6.593,14.732 7.226,15.289 L7.135,15.695 C7.075,16.011 7.09,16.312 7.09,16.642 L7.09,17.064 C6.036,16.418 5.163,15.484 4.577,14.401 C4.23,13.784 3.99,13.122 3.854,12.429 C3.688,11.661 3.659,10.865 3.764,10.082 C3.854,9.375 4.05,8.683 4.336,8.05 C4.682,7.269 5.193,6.546 5.795,5.929 C6.412,5.312 7.134,4.816 7.916,4.47 C8.789,4.079 9.736,3.868 10.685,3.838 C11.649,3.822 12.612,3.988 13.498,4.335 C14.311,4.65 15.049,5.116 15.695,5.703 C16.326,6.29 16.869,6.981 17.259,7.75 C17.575,8.382 17.816,9.059 17.937,9.751 C18.058,10.474 18.087,11.21 17.982,11.933 C17.892,12.64 17.697,13.332 17.394,13.979 C16.808,15.289 15.8,16.417 14.566,17.155 L14.68,17.049 L14.68,17.049 Z M10.93,7.474 C12.395,7.474 13.584,8.662 13.584,10.13 C13.584,11.603 12.395,12.792 10.93,12.792 C9.463,12.792 8.275,11.603 8.275,10.144 C8.275,8.685 9.463,7.495 10.93,7.495 L10.93,7.474 L10.93,7.474 Z" id="Shape"></path>
        </g>
    </g>
</svg>
