<svg width="125px" height="128px" viewBox="0 0 125 128" version="1.1" xmlns="http://www.w3.org/2000/svg" xmlns:xlink="http://www.w3.org/1999/xlink">
    <desc>Created with Sketch.</desc>
    <defs></defs>
    <g id="Page-1" stroke="none" stroke-width="1" fill="none" fill-rule="evenodd">
        <g id="logomark--breaker--reverse" fill="#000000" fill-rule="nonzero">
            <path d="M70.8,68.92 C71.92,68.92 72.86,69.01 73.92,69.22 C79.48,70.32 84.04,74.36 85.9,79.65 C86.44,81.35 87.15,83.9 87.6,85.65 L88.19,87.96 L90.57,87.91 C109.51,87.51 125,72.1 125,53 C125,24.07 100.87,0 64,0 C48.79,0.05 34.37,5.58 23.45,14.48 C9.14,26.21 0,44.04 0,64 C0.01,69.12 0.63,74.27 1.78,79.03 C5.98,96.46 17.3,111.11 32.49,119.71 C41.68,124.89 52.67,127.96 64,127.99 C66.78,127.99 69.61,127.8 72.29,127.46 C88.96,125.3 103.61,116.73 113.7,104.32 L114.36,103.51 L113.08,98.88 L110.61,99.53 C102.95,101.56 95.1,102.61 86.81,102.6 C80.18,102.6 73.86,101.92 67.62,100.6 C62,99.47 57.43,95.38 55.63,90.04 C55.05,88.36 54.79,86.8 54.8,84.93 C54.74,80.76 56.17,77.33 58.75,74.4 C61.69,71.04 66,68.92 70.8,68.92 Z M64,6 C98.12,6 119,27.92 119,53 C119,67.99 107.44,80.3 92.77,81.78 C92.38,80.39 91.96,78.92 91.6,77.8 C82.31,48.7 60.19,26.17 31.73,15.77 C40.98,9.49 51.89,5.96 64,6 Z M6,64 C6,46.49 13.76,30.79 26.03,20.15 C49.37,27.63 68.5,43.6 79.67,64.79 C78.22,64.15 76.69,63.66 75.09,63.34 C68.59,61.99 61.7,61.24 54.79,61.24 C37.51,61.27 20.95,65.82 6.79,73.64 C6.26,70.51 6,67.33 6,64 Z M66.39,106.48 C72.92,107.85 79.86,108.6 86.81,108.6 C92.12,108.6 97.4,108.16 102.53,107.35 C94.43,114.56 84.3,119.52 73.1,121.29 C68.84,116.29 65.14,110.89 62.05,105.12 C63.43,105.71 64.88,106.17 66.39,106.48 Z M65.94,121.97 C65.3,121.99 64.65,122 64,122 C54.27,122.03 45.41,119.74 37.37,115.55 C39.68,105.38 43.62,95.95 48.95,87.41 C49.13,88.98 49.48,90.54 49.94,91.93 C53.51,102.82 59.02,113.07 65.94,121.97 Z M54.25,70.43 C43.83,82.11 35.96,96.63 31.98,112.37 C20.55,104.79 11.97,93.27 8.16,79.75 C21.95,71.71 37.66,67.21 54.79,67.24 C55.75,67.24 56.7,67.25 57.65,67.28 C56.41,68.21 55.27,69.26 54.25,70.43 Z" id="Logo"></path>
        </g>
    </g>
</svg>
