<svg width="891px" height="891px" viewBox="0 0 891 891" version="1.1" xmlns="http://www.w3.org/2000/svg" xmlns:xlink="http://www.w3.org/1999/xlink">
    <!-- Generator: Sketch 47.1 (45422) - http://www.bohemiancoding.com/sketch -->
    <desc>Created with Sketch.</desc>
    <defs></defs>
    <g id="Page-1" stroke="none" stroke-width="1" fill="none" fill-rule="evenodd">
        <g id="castro" fill-rule="nonzero" fill="#000000">
            <path d="M445.5,0 C691.543,0 891,199.261 891,445.062 C891,690.864 691.543,890.125 445.5,890.125 C199.457,890.125 0,690.864 0,445.062 C0,199.261 199.457,0 445.5,0 Z M630.873,698.872 C709.919,641.371 761.31,548.216 761.31,443.056 C761.31,268.39 619.574,126.795 444.734,126.795 C269.894,126.795 128.158,268.39 128.158,443.056 C128.158,548.539 179.863,641.945 259.323,699.402 C259.323,699.402 334.073,595.817 334.073,595.817 C286.813,561.548 256.072,505.928 256.072,443.127 C256.072,338.989 340.576,254.569 444.817,254.569 C549.059,254.569 633.563,338.989 633.563,443.127 C633.563,505.654 603.09,561.062 556.179,595.367 C556.179,595.367 630.873,698.872 630.873,698.872 Z M445.436,366.737 C403.373,366.737 369.275,400.802 369.275,442.822 C369.275,484.843 403.373,518.907 445.436,518.907 C487.498,518.907 521.597,484.843 521.597,442.822 C521.597,400.802 487.498,366.737 445.436,366.737 Z" id="Combined-Shape"></path>
        </g>
    </g>
</svg>
