<?xml version="1.0" encoding="UTF-8" standalone="no"?>
<svg width="22px" height="22px" viewBox="0 0 22 22" version="1.1" xmlns="http://www.w3.org/2000/svg" xmlns:xlink="http://www.w3.org/1999/xlink">
    <!-- Generator: Sketch 50.2 (55047) - http://www.bohemiancoding.com/sketch -->
    <title>google_podcasts</title>
    <desc>Created with Sketch.</desc>
    <defs></defs>
    <g id="Page-1" stroke="none" stroke-width="1" fill="none" fill-rule="evenodd">
        <g id="google_podcasts" transform="translate(-1.000000, -1.000000)" fill="#000000" fill-rule="nonzero">
            <polygon id="Shape_3_" points="10.660099 8.100099 10.660099 11.351099 10.660099 12.648099 10.660099 15.898099 13.340099 15.898099 13.340099 12.648099 13.340099 11.351099 13.340099 8.100099"></polygon>
            <circle id="Oval_1_" cx="2.617099" cy="11.268099" r="1.341"></circle>
            <circle id="Oval_2_" cx="2.617099" cy="12.731099" r="1.341"></circle>
            <rect id="Rectangle-path" x="1.275099" y="11.268099" width="2.682" height="1.464"></rect>
            <circle id="Oval_3_" cx="21.383099" cy="12.731099" r="1.341"></circle>
            <circle id="Oval_4_" cx="21.383099" cy="11.268099" r="1.341"></circle>
            <rect id="Rectangle-path_1_" x="20.043099" y="11.268099" width="2.682" height="1.464"></rect>
            <circle id="Oval_5_" cx="7.247099" cy="15.655099" r="1.341"></circle>
            <circle id="Oval_6_" cx="7.247099" cy="17.118099" r="1.341"></circle>
            <rect id="Rectangle-path_2_" x="5.907099" y="15.656099" width="2.681" height="1.463"></rect>
            <circle id="Oval_7_" cx="7.247099" cy="6.881099" r="1.341"></circle>
            <circle id="Oval_8_" cx="7.247099" cy="11.634099" r="1.34"></circle>
            <rect id="Rectangle-path_3_" x="5.907099" y="6.881099" width="2.681" height="4.783"></rect>
            <circle id="Oval_9_" cx="16.753099" cy="8.343099" r="1.341"></circle>
            <circle id="Oval_10_" cx="16.753099" cy="6.881099" r="1.341"></circle>
            <rect id="Rectangle-path_4_" x="15.412099" y="6.881099" width="2.681" height="1.462"></rect>
            <circle id="Oval_11_" cx="12.000099" cy="4.078099" r="1.341"></circle>
            <circle id="Oval_12_" cx="12.000099" cy="2.616099" r="1.341"></circle>
            <rect id="Rectangle-path_5_" x="10.660099" y="2.616099" width="2.68" height="1.462"></rect>
            <circle id="Oval_13_" cx="12.000099" cy="21.384099" r="1.341"></circle>
            <circle id="Oval_14_" cx="12.000099" cy="19.921099" r="1.341"></circle>
            <rect id="Rectangle-path_6_" x="10.660099" y="19.920099" width="2.68" height="1.463"></rect>
            <circle id="Oval_15_" cx="16.753099" cy="17.118099" r="1.341"></circle>
            <circle id="Oval_16_" cx="16.753099" cy="12.366099" r="1.341"></circle>
            <rect id="Rectangle-path_7_" x="15.412099" y="12.365099" width="2.681" height="4.754"></rect>
            <circle id="Oval_17_" cx="12.000099" cy="8.100099" r="1.34"></circle>
            <circle id="Oval_18_" cx="12.000099" cy="15.899099" r="1.341"></circle>
        </g>
    </g>
</svg>