<svg width="48px" height="48px" viewBox="0 0 48 48" version="1.1" xmlns="http://www.w3.org/2000/svg" xmlns:xlink="http://www.w3.org/1999/xlink">
    <!-- Generator: Sketch 47.1 (45422) - http://www.bohemiancoding.com/sketch -->
    <desc>Created with Sketch.</desc>
    <defs>
        <path d="M23.9686277,47.9372549 C10.73112,47.9372549 0,37.2061354 0,23.9686277 C0,10.7311077 10.73112,0 23.9686277,0 C37.2061231,0 47.9372615,10.7311077 47.9372615,23.9686277 C47.9372615,37.2061354 37.2061231,47.9372549 23.9686277,47.9372549 Z M14.5068886,23.9944907 C14.5069718,29.0844671 18.5152949,33.2382227 23.5476201,33.4714767 C23.7909597,33.482759 23.9943426,33.2877529 23.9943426,33.0441974 L23.9943426,30.2620227 C23.9943426,30.0433418 23.8159176,29.8506027 23.5977086,29.8360296 C20.5492011,29.6320915 18.1396,27.0947523 18.1394704,23.9946202 C18.139344,20.7567477 20.7567262,18.1393625 23.9945986,18.139492 C27.0947307,18.1396216 29.6320699,20.5492196 29.836008,23.5977271 C29.8505811,23.815896 30.0433233,23.9943642 30.2620042,23.9943642 L33.0441789,23.9943642 C33.2877437,23.9943642 33.4827312,23.7909813 33.4714428,23.5476417 C33.2382103,18.5153134 29.0844486,14.506978 23.9944722,14.5069163 C18.7391913,14.5068238 14.5068022,18.7391666 14.5068886,23.9944907 Z M11.94271,23.994577 C11.9425805,17.3787847 17.3787662,11.9425928 23.9945554,11.9427162 C30.5130792,11.9428704 35.8227974,17.1181793 36.0391281,23.5840947 C36.0467771,23.813333 36.2366756,23.9943642 36.4660219,23.9943642 L39.9719421,23.9943642 C40.2129777,23.9943642 40.4056212,23.7950834 40.3992985,23.554094 C40.1659735,14.6942549 32.9105992,7.58368706 23.9944722,7.58362537 C14.9155728,7.58359453 7.58356677,14.9155821 7.58360995,23.9944907 C7.58369322,32.9106054 14.6942425,40.1659858 23.5541156,40.399283 C23.7950618,40.4056521 23.9943426,40.2129962 23.9943426,39.9719636 L23.9943426,36.4660496 C23.9943426,36.2366848 23.8133114,36.046808 23.5840731,36.039159 C17.1181608,35.8228252 11.9428396,30.5131008 11.94271,23.994577 Z" id="path-1"></path>
    </defs>
    <g id="Page-1" stroke="none" stroke-width="1" fill="none" fill-rule="evenodd">
        <g id="pocket_casts">
            <g id="Group-6">
                <g id="Fill-4-Clipped">
                    <g>
                        <mask id="mask-2" fill="white">
                            <use xlink:href="#path-1"></use>
                        </mask>
                        <g id="Combined-Shape"></g>
                        <polygon id="Fill-4" fill="#000000" fill-rule="nonzero" mask="url(#mask-2)" points="-1.53846154 -1.53846154 49.4757231 -1.53846154 49.4757231 49.4757163 -1.53846154 49.4757163"></polygon>
                    </g>
                </g>
            </g>
        </g>
    </g>
</svg>
