<?xml version="1.0" encoding="UTF-8"?>
<svg width="28px" height="29px" viewBox="0 0 28 29" version="1.1" xmlns="http://www.w3.org/2000/svg" xmlns:xlink="http://www.w3.org/1999/xlink">
    <!-- Generator: Sketch 48.2 (47327) - http://www.bohemiancoding.com/sketch -->
    <title>radiopublic</title>
    <desc>Created with Sketch.</desc>
    <defs></defs>
    <g id="Page-1" stroke="none" stroke-width="1" fill="none" fill-rule="evenodd">
        <g id="radiopublic" fill-rule="nonzero">
            <path d="M27.0636268,28.129287 C21.8720319,25.7408525 16.680437,30.5177215 11.4883354,28.129287 C11.4883354,24.2152762 11.4883354,21.6032045 11.4883354,20.2930721 C11.4883354,20.0586807 12.1005567,19.8350071 12.1005567,19.6190201 C12.1005567,19.3650815 11.4883354,19.1223475 11.4883354,18.8938492 C11.4883354,15.6382087 11.4883354,10.7547478 11.4883354,4.24346672 C16.6799303,6.63190123 21.8715252,1.85503222 27.0636268,4.24346672 L27.0636268,28.129287 Z M18.6395332,17.853216 C19.0924742,17.7509318 19.5454151,17.6442218 19.998356,17.5429211 C22.0051783,17.0880515 22.8026381,15.8576905 22.8021314,13.9226504 L22.8021314,10.803474 C22.8011181,8.90088942 22.2843399,7.69265726 19.8473757,8.24046785 C18.4885529,8.54781222 17.1297301,8.89154615 15.7709072,9.01399214 L15.7709072,24.5887291 C16.7274536,24.5026727 17.6834934,24.3069558 18.6395332,24.0915689 L18.6395332,17.853216 Z M18.6395332,15.3202067 C18.8193923,15.2798831 18.9987448,15.238576 19.1786039,15.197269 C19.8473757,15.0433509 19.911213,14.6322471 19.9122263,14.1503311 L19.9122263,11.5543777 C19.9122263,10.9898476 19.8478824,10.6470971 19.1786039,10.8010152 C18.9987448,10.8423223 18.8193923,10.8836294 18.6395332,10.9239529 L18.6395332,15.3202067 Z" id="Combined-Shape" fill="#000000"></path>
            <path d="M15.7864106,24.6023998 C15.7864106,24.6023998 15.5452474,25.9296357 11.4880314,28.1292378 C11.4880314,24.975091 11.4880314,22.6094808 11.4880314,21.0324074 C11.4880314,19.741917 12.5039326,18.1298413 14.535735,16.1961806 L15.7864106,24.6023998 Z" id="Fill-6" fill="#333333"></path>
            <path d="M15.7720725,24.5753535 C10.5146137,22.186919 5.25766149,26.963788 0.00020265814,24.5753535 L0.00020265814,0.689533223 C5.25766149,3.07796773 10.5146137,-1.69890128 15.7720725,0.689533223 L15.7720725,24.5753535 Z M7.20946205,20.5443724 L7.20946205,13.8875394 C7.41060025,13.8427901 7.6122451,13.7970572 7.81338331,13.7513244 C8.39551882,13.6190434 8.56676495,13.7705027 8.56777824,14.5022281 L8.56777824,19.0450237 C8.56828488,19.735442 8.67670699,20.0462287 8.82718066,20.1814602 C9.78322044,19.9734495 10.7392602,19.7939604 11.6953,19.7285575 L11.6953,19.6238146 C11.5863713,19.4428502 11.45819,19.1605851 11.45819,18.4908203 L11.45819,13.1946623 C11.4592033,12.038064 10.6820093,11.5969633 10.2290684,11.5123822 C10.768139,11.1853678 11.5022681,10.5495338 11.5012548,9.25524517 L11.5012548,6.76452647 C11.5007482,5.09454014 10.6176653,4.21233889 8.87024551,4.5973799 C7.36044236,4.9243943 5.85063921,5.3246796 4.34083606,5.45991112 L4.34083606,21.0346481 C5.29738248,20.9490835 6.25342227,20.7568088 7.20946205,20.5443724 Z M7.20946205,11.3127313 C7.39641418,11.2714242 7.58336632,11.2286419 7.77031845,11.1863513 C8.35194732,11.0535785 8.56879153,10.7968845 8.56777824,10.0641755 L8.56777824,7.95013808 C8.56828488,7.28037324 8.43909032,7.09891713 7.85644816,7.23119815 C7.64061724,7.28037324 7.42529297,7.32954834 7.20946205,7.37724819 L7.20946205,11.3127313 Z" id="Combined-Shape" fill="#000000"></path>
        </g>
    </g>
</svg>
