<svg width="18px" height="18px" viewBox="0 0 18 18" version="1.1" xmlns="http://www.w3.org/2000/svg" xmlns:xlink="http://www.w3.org/1999/xlink">
    <!-- Generator: Sketch 47.1 (45422) - http://www.bohemiancoding.com/sketch -->
    <desc>Created with Sketch.</desc>
    <defs></defs>
    <g id="Page-1" stroke="none" stroke-width="1" fill="none" fill-rule="evenodd">
        <g id="rss" fill-rule="nonzero" fill="#000000">
            <path d="M2,7 L1.99999991,7 C0.895429913,7.00000005 -8.74227997e-08,7.895431 -8.74227997e-08,9 C-3.91404997e-08,10.10457 0.895430913,11 1.99999991,11 L1.99999969,11 C4.76141969,10.9999999 6.99999969,13.23858 6.99999969,16 C6.99999969,16 6.99999969,16 6.99999969,16 L6.99999969,16.0000003 C6.99999986,17.1045703 7.89543069,18.0000003 8.99999969,18.0000003 C10.1045697,18.0000001 10.9999997,17.1045693 10.9999997,16.0000003 L10.9999997,16.0000008 C10.9999997,11.0294408 6.97055969,7.00000082 1.99999969,7.00000082 L2,7 Z M2,14 L1.99999991,14 C0.895429913,14 -8.74227997e-08,14.895431 -8.74227997e-08,16 C-3.91404997e-08,17.10457 0.895430913,18 1.99999991,18 C3.10456991,18 3.99999991,17.104569 3.99999991,16 L3.99999991,16.0000001 C3.99999991,14.8954301 3.10456991,14.0000001 1.99999991,14.0000001 L2,14 Z M2,0 L1.99999991,1.77636e-15 C0.895429913,4.82823018e-08 -8.74227997e-08,0.895431 -8.74227997e-08,2 C-3.91404997e-08,3.10457 0.895430913,4 1.99999991,4 L1.9999993,4 C8.6274193,3.99999971 13.9999993,9.37258 13.9999993,16 L13.9999993,16.0000003 C13.9999995,17.1045703 14.8954303,18.0000003 15.9999993,18.0000003 C17.1045693,18.0000001 17.9999993,17.1045693 17.9999993,16.0000003 L17.9999993,16.0000012 C17.9999993,7.16344122 10.8365593,1.21594301e-06 1.9999993,1.21594301e-06 L2,0 Z" id="Shape"></path>
        </g>
    </g>
</svg>
